<svg width="18" height="19" viewBox="0 0 18 19" fill="none" xmlns="http://www.w3.org/2000/svg">
<g clip-path="url(#clip0_3_345)">
<path d="M9 0.5C13.9725 0.5 18 4.5275 18 9.5C17.9995 11.3857 17.4077 13.2238 16.3078 14.7556C15.2079 16.2873 13.6554 17.4356 11.8688 18.0388C11.4188 18.1288 11.25 17.8475 11.25 17.6113C11.25 17.3075 11.2613 16.34 11.2613 15.1363C11.2613 14.2925 10.98 13.7525 10.6538 13.4712C12.6563 13.2462 14.76 12.4812 14.76 9.0275C14.76 8.0375 14.4113 7.23875 13.8375 6.60875C13.9275 6.38375 14.2425 5.46125 13.7475 4.22375C13.7475 4.22375 12.9938 3.97625 11.2725 5.14625C10.5525 4.94375 9.7875 4.8425 9.0225 4.8425C8.2575 4.8425 7.4925 4.94375 6.7725 5.14625C5.05125 3.9875 4.2975 4.22375 4.2975 4.22375C3.8025 5.46125 4.1175 6.38375 4.2075 6.60875C3.63375 7.23875 3.285 8.04875 3.285 9.0275C3.285 12.47 5.3775 13.2462 7.38 13.4712C7.12125 13.6962 6.885 14.09 6.80625 14.675C6.28875 14.9113 4.995 15.2937 4.185 13.9325C4.01625 13.6625 3.51 12.9987 2.80125 13.01C2.0475 13.0212 2.4975 13.4375 2.8125 13.6062C3.195 13.82 3.63375 14.6187 3.735 14.8775C3.915 15.3837 4.5 16.3513 6.76125 15.935C6.76125 16.6888 6.7725 17.3975 6.7725 17.6113C6.7725 17.8475 6.60375 18.1175 6.15375 18.0388C4.36122 17.4421 2.80208 16.2961 1.6975 14.7635C0.592928 13.2308 -0.000990539 11.3892 1.2401e-06 9.5C1.2401e-06 4.5275 4.0275 0.5 9 0.5Z" fill="#191919"/>
</g>
<defs>
<clipPath id="clip0_3_345">
<rect width="18" height="18" fill="white" transform="translate(0 0.5)"/>
</clipPath>
</defs>
</svg>
