<svg width="24" height="24" viewBox="0 0 24 24" fill="none" xmlns="http://www.w3.org/2000/svg">
<path d="M20 16V7C20 6.46957 19.7893 5.96086 19.4142 5.58579C19.0391 5.21071 18.5304 5 18 5H5.99999C5.46956 5 4.96085 5.21071 4.58578 5.58579C4.2107 5.96086 3.99999 6.46957 3.99999 7V16M20 16H3.99999M20 16L21.28 18.55C21.3571 18.703 21.3936 18.8732 21.386 19.0444C21.3784 19.2155 21.327 19.3818 21.2366 19.5274C21.1463 19.6729 21.02 19.7928 20.87 19.8756C20.72 19.9584 20.5513 20.0012 20.38 20H3.61999C3.44868 20.0012 3.27993 19.9584 3.12994 19.8756C2.97994 19.7928 2.85371 19.6729 2.76337 19.5274C2.67302 19.3818 2.62159 19.2155 2.61399 19.0444C2.60639 18.8732 2.64289 18.703 2.71999 18.55L3.99999 16" stroke="#191919" stroke-width="1.5" stroke-linecap="round" stroke-linejoin="round"/>
</svg>
